<mxfile host="app.diagrams.net" modified="2023-04-25T03:44:48.370Z" agent="Mozilla/5.0 (Macintosh; Intel Mac OS X 10_15_7) AppleWebKit/537.36 (KHTML, like Gecko) Chrome/112.0.0.0 Safari/537.36" etag="Da1gP1zsfpFfaG4zXasc" version="21.1.2" type="github">
  <diagram id="07fea595-8f29-1299-0266-81d95cde20df" name="Page-1">
    <mxGraphModel dx="908" dy="-242" grid="1" gridSize="10" guides="1" tooltips="1" connect="1" arrows="1" fold="1" page="1" pageScale="1" pageWidth="1169" pageHeight="827" background="#ffffff" math="0" shadow="0">
      <root>
        <mxCell id="0" />
        <mxCell id="1" parent="0" />
        <mxCell id="0MdUZJ0Amhr4Ln2m6rTR-217" value="去中心化交易所" style="whiteSpace=wrap;shadow=0;fontColor=#FFFFFF;fontFamily=Helvetica;fontStyle=0;html=1;fontSize=12;plain-purple;strokeColor=none;fillColor=#2f5b7c;gradientColor=none;spacing=6;verticalAlign=middle;" vertex="1" parent="1">
          <mxGeometry x="440" y="1000" width="120" height="60" as="geometry" />
        </mxCell>
        <mxCell id="0MdUZJ0Amhr4Ln2m6rTR-227" value="银行" style="whiteSpace=wrap;shadow=0;fontColor=#FFFFFF;fontFamily=Helvetica;fontStyle=0;html=1;fontSize=12;plain-purple;strokeColor=none;fillColor=#2f5b7c;gradientColor=none;spacing=6;verticalAlign=middle;" vertex="1" parent="1">
          <mxGeometry x="440" y="1106" width="120" height="60" as="geometry" />
        </mxCell>
        <mxCell id="0MdUZJ0Amhr4Ln2m6rTR-228" value="抵押借贷&lt;br&gt; " style="shape=document;whiteSpace=wrap;verticalAlign=middle;strokeColor=none;fillColor=#12aab5;shadow=0;fontColor=#FFFFFF;fontFamily=Helvetica;fontStyle=0;html=1;fontSize=12;spacing=6;spacingBottom=22;" vertex="1" parent="1">
          <mxGeometry x="240" y="1250" width="120" height="80" as="geometry" />
        </mxCell>
        <mxCell id="0MdUZJ0Amhr4Ln2m6rTR-229" value="流动性挖矿&lt;br&gt; " style="shape=document;whiteSpace=wrap;verticalAlign=middle;strokeColor=none;fillColor=#12aab5;shadow=0;fontColor=#FFFFFF;fontFamily=Helvetica;fontStyle=0;html=1;fontSize=12;spacing=6;spacingBottom=22;" vertex="1" parent="1">
          <mxGeometry x="435" y="1250" width="120" height="80" as="geometry" />
        </mxCell>
        <mxCell id="0MdUZJ0Amhr4Ln2m6rTR-230" value="违约拍卖&lt;br&gt; " style="shape=document;whiteSpace=wrap;verticalAlign=middle;strokeColor=none;fillColor=#12aab5;shadow=0;fontColor=#FFFFFF;fontFamily=Helvetica;fontStyle=0;html=1;fontSize=12;spacing=6;spacingBottom=22;" vertex="1" parent="1">
          <mxGeometry x="645" y="1251" width="120" height="80" as="geometry" />
        </mxCell>
        <mxCell id="0MdUZJ0Amhr4Ln2m6rTR-231" value="用户交易&lt;br&gt; " style="shape=document;whiteSpace=wrap;verticalAlign=middle;strokeColor=none;fillColor=#12aab5;shadow=0;fontColor=#FFFFFF;fontFamily=Helvetica;fontStyle=0;html=1;fontSize=12;spacing=6;spacingBottom=22;" vertex="1" parent="1">
          <mxGeometry x="440" y="886" width="120" height="80" as="geometry" />
        </mxCell>
        <mxCell id="0MdUZJ0Amhr4Ln2m6rTR-233" value="" style="edgeStyle=segmentEdgeStyle;strokeColor=#12AAB5;strokeWidth=3;html=1;endArrow=block;endFill=1;" edge="1" parent="1">
          <mxGeometry x="452.5" y="662" width="100" height="100" as="geometry">
            <mxPoint x="500" y="957" as="sourcePoint" />
            <mxPoint x="499.5" y="997" as="targetPoint" />
            <Array as="points">
              <mxPoint x="499.5" y="987" />
            </Array>
          </mxGeometry>
        </mxCell>
        <mxCell id="0MdUZJ0Amhr4Ln2m6rTR-234" value="" style="edgeStyle=segmentEdgeStyle;strokeColor=#2F5B7C;strokeWidth=3;html=1;endArrow=block;endFill=1;" edge="1" parent="1">
          <mxGeometry width="100" height="100" relative="1" as="geometry">
            <mxPoint x="499.5" y="1063" as="sourcePoint" />
            <mxPoint x="499.5" y="1103" as="targetPoint" />
            <Array as="points">
              <mxPoint x="499.5" y="1088" />
              <mxPoint x="499.5" y="1088" />
            </Array>
          </mxGeometry>
        </mxCell>
        <mxCell id="0MdUZJ0Amhr4Ln2m6rTR-235" value="" style="edgeStyle=segmentEdgeStyle;strokeColor=#12AAB5;strokeWidth=3;html=1;endArrow=block;endFill=1;" edge="1" parent="1">
          <mxGeometry x="413" y="875" width="100" height="100" as="geometry">
            <mxPoint x="461" y="1180" as="sourcePoint" />
            <mxPoint x="300" y="1240" as="targetPoint" />
            <Array as="points">
              <mxPoint x="461" y="1200" />
              <mxPoint x="300" y="1200" />
            </Array>
          </mxGeometry>
        </mxCell>
        <mxCell id="0MdUZJ0Amhr4Ln2m6rTR-236" value="" style="edgeStyle=segmentEdgeStyle;strokeColor=#12AAB5;strokeWidth=3;html=1;endArrow=block;endFill=1;" edge="1" parent="1">
          <mxGeometry x="823" y="875" width="100" height="100" as="geometry">
            <mxPoint x="545" y="1180" as="sourcePoint" />
            <mxPoint x="710" y="1240" as="targetPoint" />
            <Array as="points">
              <mxPoint x="545" y="1200" />
              <mxPoint x="710" y="1200" />
            </Array>
          </mxGeometry>
        </mxCell>
        <mxCell id="0MdUZJ0Amhr4Ln2m6rTR-237" value="" style="edgeStyle=segmentEdgeStyle;strokeColor=#12AAB5;strokeWidth=3;html=1;endArrow=block;endFill=1;" edge="1" parent="1">
          <mxGeometry x="452.5" y="904" width="100" height="100" as="geometry">
            <mxPoint x="500" y="1180" as="sourcePoint" />
            <mxPoint x="499.5" y="1239" as="targetPoint" />
            <Array as="points">
              <mxPoint x="499.5" y="1229" />
            </Array>
          </mxGeometry>
        </mxCell>
        <mxCell id="0MdUZJ0Amhr4Ln2m6rTR-247" value="" style="rounded=0;orthogonalLoop=1;jettySize=auto;html=1;" edge="1" parent="1" source="0MdUZJ0Amhr4Ln2m6rTR-239" target="0MdUZJ0Amhr4Ln2m6rTR-243">
          <mxGeometry relative="1" as="geometry" />
        </mxCell>
        <mxCell id="0MdUZJ0Amhr4Ln2m6rTR-239" value="ERC20 Pool" style="swimlane;fontStyle=0;childLayout=stackLayout;horizontal=1;startSize=26;fillColor=none;horizontalStack=0;resizeParent=1;resizeParentMax=0;resizeLast=0;collapsible=1;marginBottom=0;whiteSpace=wrap;html=1;" vertex="1" parent="1">
          <mxGeometry x="1000" y="860" width="140" height="104" as="geometry" />
        </mxCell>
        <mxCell id="0MdUZJ0Amhr4Ln2m6rTR-240" value="NFTAccount" style="text;strokeColor=none;fillColor=none;align=left;verticalAlign=top;spacingLeft=4;spacingRight=4;overflow=hidden;rotatable=0;points=[[0,0.5],[1,0.5]];portConstraint=eastwest;whiteSpace=wrap;html=1;" vertex="1" parent="0MdUZJ0Amhr4Ln2m6rTR-239">
          <mxGeometry y="26" width="140" height="26" as="geometry" />
        </mxCell>
        <mxCell id="0MdUZJ0Amhr4Ln2m6rTR-241" value="+ field: type" style="text;strokeColor=none;fillColor=none;align=left;verticalAlign=top;spacingLeft=4;spacingRight=4;overflow=hidden;rotatable=0;points=[[0,0.5],[1,0.5]];portConstraint=eastwest;whiteSpace=wrap;html=1;" vertex="1" parent="0MdUZJ0Amhr4Ln2m6rTR-239">
          <mxGeometry y="52" width="140" height="26" as="geometry" />
        </mxCell>
        <mxCell id="0MdUZJ0Amhr4Ln2m6rTR-242" value="+ field: type" style="text;strokeColor=none;fillColor=none;align=left;verticalAlign=top;spacingLeft=4;spacingRight=4;overflow=hidden;rotatable=0;points=[[0,0.5],[1,0.5]];portConstraint=eastwest;whiteSpace=wrap;html=1;" vertex="1" parent="0MdUZJ0Amhr4Ln2m6rTR-239">
          <mxGeometry y="78" width="140" height="26" as="geometry" />
        </mxCell>
        <mxCell id="0MdUZJ0Amhr4Ln2m6rTR-243" value="BankColleral" style="swimlane;fontStyle=0;childLayout=stackLayout;horizontal=1;startSize=26;fillColor=none;horizontalStack=0;resizeParent=1;resizeParentMax=0;resizeLast=0;collapsible=1;marginBottom=0;whiteSpace=wrap;html=1;" vertex="1" parent="1">
          <mxGeometry x="1270" y="990" width="140" height="104" as="geometry" />
        </mxCell>
        <mxCell id="0MdUZJ0Amhr4Ln2m6rTR-244" value="+ field: type" style="text;strokeColor=none;fillColor=none;align=left;verticalAlign=top;spacingLeft=4;spacingRight=4;overflow=hidden;rotatable=0;points=[[0,0.5],[1,0.5]];portConstraint=eastwest;whiteSpace=wrap;html=1;" vertex="1" parent="0MdUZJ0Amhr4Ln2m6rTR-243">
          <mxGeometry y="26" width="140" height="26" as="geometry" />
        </mxCell>
        <mxCell id="0MdUZJ0Amhr4Ln2m6rTR-245" value="+ field: type" style="text;strokeColor=none;fillColor=none;align=left;verticalAlign=top;spacingLeft=4;spacingRight=4;overflow=hidden;rotatable=0;points=[[0,0.5],[1,0.5]];portConstraint=eastwest;whiteSpace=wrap;html=1;" vertex="1" parent="0MdUZJ0Amhr4Ln2m6rTR-243">
          <mxGeometry y="52" width="140" height="26" as="geometry" />
        </mxCell>
        <mxCell id="0MdUZJ0Amhr4Ln2m6rTR-246" value="+ field: type" style="text;strokeColor=none;fillColor=none;align=left;verticalAlign=top;spacingLeft=4;spacingRight=4;overflow=hidden;rotatable=0;points=[[0,0.5],[1,0.5]];portConstraint=eastwest;whiteSpace=wrap;html=1;" vertex="1" parent="0MdUZJ0Amhr4Ln2m6rTR-243">
          <mxGeometry y="78" width="140" height="26" as="geometry" />
        </mxCell>
        <mxCell id="0MdUZJ0Amhr4Ln2m6rTR-248" value="ERC20 Pool2" style="swimlane;fontStyle=0;childLayout=stackLayout;horizontal=1;startSize=26;fillColor=none;horizontalStack=0;resizeParent=1;resizeParentMax=0;resizeLast=0;collapsible=1;marginBottom=0;whiteSpace=wrap;html=1;" vertex="1" parent="1">
          <mxGeometry x="999" y="1016" width="140" height="104" as="geometry" />
        </mxCell>
        <mxCell id="0MdUZJ0Amhr4Ln2m6rTR-249" value="NFTAccount" style="text;strokeColor=none;fillColor=none;align=left;verticalAlign=top;spacingLeft=4;spacingRight=4;overflow=hidden;rotatable=0;points=[[0,0.5],[1,0.5]];portConstraint=eastwest;whiteSpace=wrap;html=1;" vertex="1" parent="0MdUZJ0Amhr4Ln2m6rTR-248">
          <mxGeometry y="26" width="140" height="26" as="geometry" />
        </mxCell>
        <mxCell id="0MdUZJ0Amhr4Ln2m6rTR-250" value="+ field: type" style="text;strokeColor=none;fillColor=none;align=left;verticalAlign=top;spacingLeft=4;spacingRight=4;overflow=hidden;rotatable=0;points=[[0,0.5],[1,0.5]];portConstraint=eastwest;whiteSpace=wrap;html=1;" vertex="1" parent="0MdUZJ0Amhr4Ln2m6rTR-248">
          <mxGeometry y="52" width="140" height="26" as="geometry" />
        </mxCell>
        <mxCell id="0MdUZJ0Amhr4Ln2m6rTR-251" value="+ field: type" style="text;strokeColor=none;fillColor=none;align=left;verticalAlign=top;spacingLeft=4;spacingRight=4;overflow=hidden;rotatable=0;points=[[0,0.5],[1,0.5]];portConstraint=eastwest;whiteSpace=wrap;html=1;" vertex="1" parent="0MdUZJ0Amhr4Ln2m6rTR-248">
          <mxGeometry y="78" width="140" height="26" as="geometry" />
        </mxCell>
        <mxCell id="0MdUZJ0Amhr4Ln2m6rTR-252" value="ERC20 NFTToken" style="swimlane;fontStyle=0;childLayout=stackLayout;horizontal=1;startSize=26;fillColor=none;horizontalStack=0;resizeParent=1;resizeParentMax=0;resizeLast=0;collapsible=1;marginBottom=0;whiteSpace=wrap;html=1;" vertex="1" parent="1">
          <mxGeometry x="1000" y="1180" width="140" height="104" as="geometry" />
        </mxCell>
        <mxCell id="0MdUZJ0Amhr4Ln2m6rTR-253" value="+ field: type" style="text;strokeColor=none;fillColor=none;align=left;verticalAlign=top;spacingLeft=4;spacingRight=4;overflow=hidden;rotatable=0;points=[[0,0.5],[1,0.5]];portConstraint=eastwest;whiteSpace=wrap;html=1;" vertex="1" parent="0MdUZJ0Amhr4Ln2m6rTR-252">
          <mxGeometry y="26" width="140" height="26" as="geometry" />
        </mxCell>
        <mxCell id="0MdUZJ0Amhr4Ln2m6rTR-254" value="+ field: type" style="text;strokeColor=none;fillColor=none;align=left;verticalAlign=top;spacingLeft=4;spacingRight=4;overflow=hidden;rotatable=0;points=[[0,0.5],[1,0.5]];portConstraint=eastwest;whiteSpace=wrap;html=1;" vertex="1" parent="0MdUZJ0Amhr4Ln2m6rTR-252">
          <mxGeometry y="52" width="140" height="26" as="geometry" />
        </mxCell>
        <mxCell id="0MdUZJ0Amhr4Ln2m6rTR-255" value="+ field: type" style="text;strokeColor=none;fillColor=none;align=left;verticalAlign=top;spacingLeft=4;spacingRight=4;overflow=hidden;rotatable=0;points=[[0,0.5],[1,0.5]];portConstraint=eastwest;whiteSpace=wrap;html=1;" vertex="1" parent="0MdUZJ0Amhr4Ln2m6rTR-252">
          <mxGeometry y="78" width="140" height="26" as="geometry" />
        </mxCell>
        <mxCell id="0MdUZJ0Amhr4Ln2m6rTR-257" style="edgeStyle=orthogonalEdgeStyle;rounded=0;orthogonalLoop=1;jettySize=auto;html=1;entryX=0;entryY=0.5;entryDx=0;entryDy=0;" edge="1" parent="1" source="0MdUZJ0Amhr4Ln2m6rTR-249" target="0MdUZJ0Amhr4Ln2m6rTR-245">
          <mxGeometry relative="1" as="geometry" />
        </mxCell>
        <mxCell id="0MdUZJ0Amhr4Ln2m6rTR-258" style="rounded=0;orthogonalLoop=1;jettySize=auto;html=1;entryX=0;entryY=0.5;entryDx=0;entryDy=0;exitX=1;exitY=0.5;exitDx=0;exitDy=0;" edge="1" parent="1" source="0MdUZJ0Amhr4Ln2m6rTR-253" target="0MdUZJ0Amhr4Ln2m6rTR-246">
          <mxGeometry relative="1" as="geometry" />
        </mxCell>
        <mxCell id="0MdUZJ0Amhr4Ln2m6rTR-266" style="edgeStyle=orthogonalEdgeStyle;rounded=0;orthogonalLoop=1;jettySize=auto;html=1;entryX=0.511;entryY=1.038;entryDx=0;entryDy=0;entryPerimeter=0;" edge="1" parent="1" source="0MdUZJ0Amhr4Ln2m6rTR-260" target="0MdUZJ0Amhr4Ln2m6rTR-246">
          <mxGeometry relative="1" as="geometry" />
        </mxCell>
        <mxCell id="0MdUZJ0Amhr4Ln2m6rTR-260" value="BankIssueToken" style="swimlane;fontStyle=0;childLayout=stackLayout;horizontal=1;startSize=26;fillColor=none;horizontalStack=0;resizeParent=1;resizeParentMax=0;resizeLast=0;collapsible=1;marginBottom=0;whiteSpace=wrap;html=1;" vertex="1" parent="1">
          <mxGeometry x="1272" y="1180" width="140" height="104" as="geometry" />
        </mxCell>
        <mxCell id="0MdUZJ0Amhr4Ln2m6rTR-261" value="+ field: type" style="text;strokeColor=none;fillColor=none;align=left;verticalAlign=top;spacingLeft=4;spacingRight=4;overflow=hidden;rotatable=0;points=[[0,0.5],[1,0.5]];portConstraint=eastwest;whiteSpace=wrap;html=1;" vertex="1" parent="0MdUZJ0Amhr4Ln2m6rTR-260">
          <mxGeometry y="26" width="140" height="26" as="geometry" />
        </mxCell>
        <mxCell id="0MdUZJ0Amhr4Ln2m6rTR-262" value="+ field: type" style="text;strokeColor=none;fillColor=none;align=left;verticalAlign=top;spacingLeft=4;spacingRight=4;overflow=hidden;rotatable=0;points=[[0,0.5],[1,0.5]];portConstraint=eastwest;whiteSpace=wrap;html=1;" vertex="1" parent="0MdUZJ0Amhr4Ln2m6rTR-260">
          <mxGeometry y="52" width="140" height="26" as="geometry" />
        </mxCell>
        <mxCell id="0MdUZJ0Amhr4Ln2m6rTR-263" value="+ field: type" style="text;strokeColor=none;fillColor=none;align=left;verticalAlign=top;spacingLeft=4;spacingRight=4;overflow=hidden;rotatable=0;points=[[0,0.5],[1,0.5]];portConstraint=eastwest;whiteSpace=wrap;html=1;" vertex="1" parent="0MdUZJ0Amhr4Ln2m6rTR-260">
          <mxGeometry y="78" width="140" height="26" as="geometry" />
        </mxCell>
        <mxCell id="0MdUZJ0Amhr4Ln2m6rTR-264" style="edgeStyle=orthogonalEdgeStyle;rounded=0;orthogonalLoop=1;jettySize=auto;html=1;entryX=0;entryY=0.5;entryDx=0;entryDy=0;" edge="1" parent="1" source="0MdUZJ0Amhr4Ln2m6rTR-254" target="0MdUZJ0Amhr4Ln2m6rTR-262">
          <mxGeometry relative="1" as="geometry" />
        </mxCell>
        <mxCell id="0MdUZJ0Amhr4Ln2m6rTR-267" value="Exchange" style="swimlane;fontStyle=0;childLayout=stackLayout;horizontal=1;startSize=26;fillColor=none;horizontalStack=0;resizeParent=1;resizeParentMax=0;resizeLast=0;collapsible=1;marginBottom=0;whiteSpace=wrap;html=1;" vertex="1" parent="1">
          <mxGeometry x="1630" y="990" width="140" height="104" as="geometry" />
        </mxCell>
        <mxCell id="0MdUZJ0Amhr4Ln2m6rTR-268" value="fillOrder" style="text;strokeColor=none;fillColor=none;align=left;verticalAlign=top;spacingLeft=4;spacingRight=4;overflow=hidden;rotatable=0;points=[[0,0.5],[1,0.5]];portConstraint=eastwest;whiteSpace=wrap;html=1;" vertex="1" parent="0MdUZJ0Amhr4Ln2m6rTR-267">
          <mxGeometry y="26" width="140" height="26" as="geometry" />
        </mxCell>
        <mxCell id="0MdUZJ0Amhr4Ln2m6rTR-269" value="cancelOrder&lt;span id=&quot;docs-internal-guid-cefc90cc-7fff-31b1-23c8-4a51f137ae69&quot;&gt;&lt;/span&gt;&lt;span id=&quot;docs-internal-guid-cefc90cc-7fff-31b1-23c8-4a51f137ae69&quot;&gt;&lt;/span&gt;&lt;span id=&quot;docs-internal-guid-cefc90cc-7fff-31b1-23c8-4a51f137ae69&quot;&gt;&lt;/span&gt;" style="text;strokeColor=none;fillColor=none;align=left;verticalAlign=top;spacingLeft=4;spacingRight=4;overflow=hidden;rotatable=0;points=[[0,0.5],[1,0.5]];portConstraint=eastwest;whiteSpace=wrap;html=1;" vertex="1" parent="0MdUZJ0Amhr4Ln2m6rTR-267">
          <mxGeometry y="52" width="140" height="26" as="geometry" />
        </mxCell>
        <mxCell id="0MdUZJ0Amhr4Ln2m6rTR-270" value="getFillOrderResult&lt;span id=&quot;docs-internal-guid-ebca988b-7fff-6f1b-a2be-4e95049471c1&quot;&gt;&lt;/span&gt;" style="text;strokeColor=none;fillColor=none;align=left;verticalAlign=top;spacingLeft=4;spacingRight=4;overflow=hidden;rotatable=0;points=[[0,0.5],[1,0.5]];portConstraint=eastwest;whiteSpace=wrap;html=1;" vertex="1" parent="0MdUZJ0Amhr4Ln2m6rTR-267">
          <mxGeometry y="78" width="140" height="26" as="geometry" />
        </mxCell>
        <mxCell id="0MdUZJ0Amhr4Ln2m6rTR-271" value="Order Management" style="swimlane;fontStyle=0;childLayout=stackLayout;horizontal=1;startSize=26;fillColor=none;horizontalStack=0;resizeParent=1;resizeParentMax=0;resizeLast=0;collapsible=1;marginBottom=0;whiteSpace=wrap;html=1;" vertex="1" parent="1">
          <mxGeometry x="1630" y="1150" width="140" height="104" as="geometry" />
        </mxCell>
        <mxCell id="0MdUZJ0Amhr4Ln2m6rTR-272" value="createOrder" style="text;strokeColor=none;fillColor=none;align=left;verticalAlign=top;spacingLeft=4;spacingRight=4;overflow=hidden;rotatable=0;points=[[0,0.5],[1,0.5]];portConstraint=eastwest;whiteSpace=wrap;html=1;" vertex="1" parent="0MdUZJ0Amhr4Ln2m6rTR-271">
          <mxGeometry y="26" width="140" height="26" as="geometry" />
        </mxCell>
        <mxCell id="0MdUZJ0Amhr4Ln2m6rTR-273" value="removeOrder" style="text;strokeColor=none;fillColor=none;align=left;verticalAlign=top;spacingLeft=4;spacingRight=4;overflow=hidden;rotatable=0;points=[[0,0.5],[1,0.5]];portConstraint=eastwest;whiteSpace=wrap;html=1;" vertex="1" parent="0MdUZJ0Amhr4Ln2m6rTR-271">
          <mxGeometry y="52" width="140" height="26" as="geometry" />
        </mxCell>
        <mxCell id="0MdUZJ0Amhr4Ln2m6rTR-274" value="getOrder" style="text;strokeColor=none;fillColor=none;align=left;verticalAlign=top;spacingLeft=4;spacingRight=4;overflow=hidden;rotatable=0;points=[[0,0.5],[1,0.5]];portConstraint=eastwest;whiteSpace=wrap;html=1;" vertex="1" parent="0MdUZJ0Amhr4Ln2m6rTR-271">
          <mxGeometry y="78" width="140" height="26" as="geometry" />
        </mxCell>
      </root>
    </mxGraphModel>
  </diagram>
</mxfile>
